Coordinates
version=1
nRows=21
nColumns=12
inDegrees=yes

Units are S.I. units (second, meters, Newtons, ...)
Angles are in degrees

endheader
time	SC_y	SC_z	SC_x	AC_y	AC_z	AC_x	GH_y	GH_z	GH_yy	EL_x	PS_y
       0.0              -25.71          29.91          4.481          48.54         -12.57          4.052          27.16          41.33         -144.9          73.87          56.04
   0.04731              -25.71           29.9          4.483          48.54         -12.57          4.052          27.18          41.33         -144.9          73.87          56.05
   0.09461              -25.71           29.9          4.485          48.54         -12.57          4.052           27.2          41.33         -144.9          73.87          56.05
    0.1419              -25.71          29.89          4.488          48.55         -12.57          4.052          27.22          41.33         -144.8          73.88          56.06
    0.1892              -25.71          29.89           4.49          48.55         -12.57          4.053          27.24          41.33         -144.8          73.88          56.07
    0.2365              -25.71          29.88          4.493          48.55         -12.57          4.053          27.26          41.33         -144.8          73.88          56.07
    0.2838              -25.71          29.87          4.496          48.55         -12.57          4.053          27.29          41.33         -144.8          73.89          56.08
    0.3311              -25.71          29.87          4.499          48.56         -12.57          4.054          27.31          41.33         -144.7          73.89          56.09
    0.3784              -25.71          29.86          4.503          48.56         -12.57          4.054          27.34          41.33         -144.7           73.9           56.1
    0.4257              -25.71          29.85          4.506          48.56         -12.57          4.054          27.37          41.33         -144.6           73.9          56.11
    0.4731              -25.71          29.84           4.51          48.57         -12.57          4.055           27.4          41.33         -144.6          73.91          56.12
    0.5204              -25.71          29.84          4.514          48.57         -12.57          4.055          27.43          41.33         -144.5          73.91          56.13
    0.5677              -25.71          29.83          4.519          48.58         -12.57          4.056          27.47          41.33         -144.5          73.92          56.15
     0.615              -25.71          29.82          4.524          48.58         -12.58          4.056           27.5          41.34         -144.4          73.92          56.16
    0.6623              -25.72          29.81          4.529          48.59         -12.58          4.057          27.55          41.34         -144.4          73.93          56.18
    0.7096              -25.72          29.79          4.535          48.59         -12.58          4.057          27.59          41.34         -144.3          73.94          56.19
    0.7569              -25.72          29.78          4.541           48.6         -12.58          4.058          27.64          41.34         -144.2          73.95          56.21
    0.8042              -25.72          29.77          4.548           48.6         -12.58          4.059          27.69          41.34         -144.2          73.96          56.23
    0.8515              -25.72          29.75          4.555          48.61         -12.58           4.06          27.75          41.34         -144.1          73.97          56.25
    0.8988              -25.72          29.74          4.563          48.62         -12.58           4.06          27.82          41.34         -144.0          73.98          56.27
    0.9461              -25.72          29.72          4.572          48.63         -12.59          4.061          27.89          41.35         -143.9          73.99           56.3
